<svg xmlns="http://www.w3.org/2000/svg" fill="none" viewBox="0 0 512 237"><defs/><path fill="#009AE4" fill-rule="evenodd" d="M132.721 194.808s1.073 4.762 3.679 2.919c2.606-1.844 3.679-4.456 6.285-4.456 2.606 0 13.643-2.151 16.249 0 2.606 2.151 2.912.308 4.292.308s5.212.768 5.212.768c3.372-.307 2.759-5.685.306-7.375-3.525-2.765-8.277-4.609-11.803-7.374-.307-2.612-.767-5.377-1.073-7.989.92-1.383 1.993-2.765 2.912-4.148v-13.366c-.46-1.229-1.073-2.305-1.533-3.534l-.459-10.14c-.46-.614-.92-1.229-1.38-1.843v-3.841c.92-1.229 2.606-2.612 3.526-3.841.306-2.458-.92-4.148-.613-6.76-.614-3.226-.767-7.067-1.38-10.294V102.32c2.606-.768 3.219-1.844 3.372-3.0728.307-1.5363-.46-3.2263-1.226-6.7599-.307-18.4361-.46-37.6403-.92-56.2301 1.38-2.1509 3.066-3.3799 3.066-4.9163 0-1.229-1.38-2.3045-3.066-3.8408v-3.8409s2.913-5.9917 5.365-5.9917c2.453 0 3.986-1.8436 3.986-3.5336 2.146-4.30175-2.453-4.76265-2.453-4.76265-5.058-.15364-10.73.15363-15.636 0-4.292-.15364-7.817-.61454-12.11-.61454-1.839.15363-3.679.15363-5.518.30727-4.599 1.38272-3.526 3.84082-1.84 5.22352 2.146 1.3827 3.986 2.9191 6.285 2.9191 2.913 0 5.366 1.0754 6.285 3.9945.307 11.8298.46 23.6596.767 35.6431.153 8.7572.306 17.5143.46 26.2715.153 8.7571 0 17.5143.153 26.2713.153 10.294.307 20.587.46 30.881 0 0-.46 3.84-1.38 4.762-.766.922-.46 8.604-.46 8.604 2.913 2.612 2.3 2.151.307 5.684-.153 7.682-.307 15.21-.46 22.892-.766 1.382-1.38 2.765-2.146 4.148 0 .153-7.511 4.609-7.511 8.45zM4.56714 231.681c-3.985628-.768-4.5988015-2.766-3.21916-3.841.76647-.615 3.06587-.615 4.13892-1.076 1.53294-.768 2.91258-1.536 3.83234-2.765 1.53296-1.844.61317-6.145 2.45266-9.833 1.6863-14.902 2.2994-34.721.4599-41.327-1.073-10.294 0-44.4 0-48.702 1.2264-2.151 1.5329-2.305 1.5329-5.838 0-1.383.9198-3.688 0-5.378-1.5329-1.689-1.073-8.296-1.073-11.983-.1533-5.5308.3066-5.5308 1.8395-10.4471.6132-1.8436.7665-4.1481 0-5.9917-1.2263-2.9191-3.0659.4609-2.9126-5.3772.3066-14.288.7665-28.576.4599-42.8639.1533-1.2291 2.1461-1.5364 2.606-2.7655.4599-1.5363.7665-3.3799 0-4.9162-.4599-.7682-2.606.3072-3.2192-.3073C7.47972 24.4282 2.57433 22.1237.274925 17.0538c-.91976-1.9972.613174-6.299 2.452695-7.22081 3.06587-1.53634 8.89098 0 12.41678-.61453 1.8395-.30727 3.0659-1.38271 4.9054-1.53635 14.5628-.61453 29.5856-2.15087 43.9952-.61453 2.2994.15363 3.0658 4.30172 5.212 5.37722 2.9125 1.3827 7.2047 1.0754 9.3509 3.5336 3.5257 3.8408 6.1317 6.9135 6.5916 12.2907.6131 6.4526 1.6862 13.8271 1.6862 18.897 0 4.1481-1.2263 7.989-3.2192 11.5225-2.6059 4.9163-5.5185 9.5254-8.891 14.4417-1.8395 2.7654-5.212 5.3771-5.9784 8.6035-.7665 3.3799 7.6646.9218 9.5042 3.8408 1.6862 2.7654-1.3797 5.9917-.4599 9.2181.7665 2.7654 5.6718 3.0727 6.285 5.9913 1.533 7.375-1.8395 15.21-.4599 22.738.4599 2.458 4.139 2.458 4.5988 4.917.4599 5.223.3066 10.6.3066 16.131 0 5.838.3066 11.676.1533 17.207-.1533 2.151-2.9126 3.38-3.0658 5.377-.6132 5.531 1.2263 11.83 0 17.207-1.2264 5.685-5.8252 9.833-7.6647 15.364-1.533 4.762-1.0731 11.83-3.6791 14.902-4.1389 1.229-9.3509 4.148-12.57 6.607-4.7521 3.533-7.818 7.681-9.1976 7.681-1.8395 1.69-5.8252.615-8.1246 1.383-2.1461.768-2.2994 2.612-4.5988 2.304-1.8395-.153-1.2263-1.689-2.606-2.919-.7664-.614-2.2994-.768-3.0658 0-4.5988 3.841-1.2264 2.766-6.4384 2.305-6.1317-.615-16.5556 1.075-23.14726-.307zm30.19796-21.663c1.2264-2.305 2.4527-4.609 3.6791-7.068-.3066-7.681-.7665-15.517-1.0731-23.198 1.0731-1.383 2.1461-2.919 3.0659-4.302v-23.352c0-3.534-.4599-7.068-.4599-10.601-3.679-3.073-1.8395-2.919 1.0731-6.453 0-3.38.7664-6.145.7664-9.525-.3066-2.919-.7664-5.685-1.073-8.604.4599-1.382 1.073-2.919 1.5329-4.301 0-4.302.4599-7.836.4599-12.138 0-3.994.1533-5.3767.9197-5.2231.7665.3073 2.1462 2.1509 4.5988 4.4554 1.8396 1.8437 3.8324 3.6877 5.6719 5.5307 3.5257 3.38 6.8982 3.687 5.5186 9.218-1.3797 5.224 2.4527 6.606 1.2263 11.676-.9198 3.995-2.1461 6.299-1.8395 8.758.1533 1.382.7665 2.919 2.4527 4.762 1.5329 1.69 1.9928 1.537 1.073 3.687-1.3796 3.227-2.4527 5.07-2.606 7.068-.1532 2.458 1.2264 3.533 2.2994 7.989.9198 3.533.9198 5.991 0 9.525-1.073 4.302-2.1461 8.45-3.2191 12.751-.1533 3.227-.4599 6.453-.6132 9.679-.3066 4.917-.9197 5.07-4.4455 8.604-3.0659 3.226-7.0515 5.838-10.1174 8.757-3.0658.922-5.5185 1.076-8.891 2.305zm7.9726-136.4272c2.606.1536 3.8324.3072 4.5988 0 .7665-.3073 1.2264-1.2291 2.4527-3.5336 1.533-3.0727 3.8324-6.7599 5.6719-7.0672 3.2191-.4609 4.9054-.9218 4.9054-.9218s1.6862-.3073 1.073-4.4554c-.6131-4.1481-1.6862-8.1426-.7664-9.218 1.073-1.0755 1.2263-4.3018.1533-5.5309-1.0731-1.229-2.1462-2.6117-.3066-4.3017 1.8395-1.69 3.0658-4.609-1.2264-4.1481-4.2922.4609-4.1389-1.3828-4.7521-2.6118-.4599-1.2291-5.2119-.9218-7.5113-1.0755-2.4527.4609-4.4456.3073-4.4456 2.9191 0 2.6118-.3065 14.7489-.3065 15.9779.1532 1.2291.4598 23.967.4598 23.967zM177.482 184.976c-.153 1.075-2.606 1.075-2.453 2.151.307 1.536.307 3.841 1.84 3.994 4.445.615 10.424-1.229 14.716-.307 1.686.307 1.84 3.226 3.373 3.994h4.905c1.226-.614.92-2.919 2.146-3.687 1.533-.922 3.526-1.229 5.212-.614.92.307-.307 2.611.613 2.765 7.665-.307 14.563.615 21.921 0 1.38-.307 0-2.304 1.226-3.226 1.38-.922 4.753.768 4.906-.922 1.226-8.604-.613-18.129.153-26.886.307-2.765 2.913-4.455 3.526-7.067.153-.922 1.226-.922 1.38-1.844.306-3.073.306-6.913-.614-9.986-1.073-1.076-4.139-1.383-5.212-.922-1.226.922-.153 3.995-.919 5.224-.46.614-1.84-.615-2.146 0-.307.614.153 1.536.306 2.304.153.461.153.922-.306 1.076-1.993 1.075-5.059-1.383-6.745 0-1.687 1.382.153 3.994-1.227 5.684-2.452 2.612-7.511 4.302-9.964 6.914-2.912 3.226-2.606 6.452-5.825 9.218-2.606 2.151-6.898 2.458-9.964 3.687-3.526 1.536-5.365 4.148-9.044 5.223-1.073.308-2.453-1.69-2.146-2.765 2.759-9.064 6.438-18.282 9.504-27.347 1.993-5.838 2.912-9.372 4.905-15.21 2.146-5.991 5.059-13.212 8.585-18.436.766-1.075 3.065-.307 3.372-1.536.92-2.919-.766-6.299 0-9.218.613-2.151 2.913-4.302 4.905-5.531 1.227-.768 3.373.307 3.986-1.075 1.38-3.3803.153-6.9139.92-10.4475.613-2.3045 2.146-3.8408 3.219-5.9917 1.38-2.9191 1.226-5.5308 2.759-8.2963 1.227-2.3045 3.833-5.5308 4.599-8.1426 1.073-3.5335.153-5.2235.46-8.7571.153-.9218 1.533-1.5364 1.533-2.4582.46-11.6762 1.073-23.3523.46-35.0285 0-.9218-2.146-.9218-2.146-1.8436 0-3.5336.46-6.76.306-9.83263 0-.61454.154-1.07544-.46-1.22908-9.657-.4609-19.161-.15363-28.819 0-7.971.15364-15.942-.61453-23.76 0-1.227.15364-2.3.30727-3.066 1.22908-.767.76813-1.226 2.61173-1.073 3.84083.153 5.2236-.153 10.7544 0 17.0534 0 1.2291 2.299.4609 2.606 1.5363 1.073 3.0727 1.226 6.4527.92 9.5254-.154 1.0754-1.38 2.4581-1.227 3.3799.46 3.5336.92 6.1454 1.686 9.5253.307 1.3827 1.533 2.3045 1.84 3.6872.46 1.5364-1.073 4.9163.613 4.9163.613 0 2.453.3073 3.373 0 1.226-.4609-.46-2.7654 0-3.9944.306-.9218 1.992-.9218 2.146-1.8437.766-5.0699-.613-11.0616.153-16.1315.307-1.5364 1.073-3.2264 2.453-3.9945 1.073-.7682 3.219 1.0754 3.985 0 1.073-1.5364 0-3.2263.767-4.9163 1.073-2.4582 2.606-4.7627 4.599-6.4527 1.839-1.6899 3.679-3.5335 6.131-3.8408 5.366-.6145 11.957 0 19.315-.3073.613 0 .92 1.0755.92 1.69.307 3.38.92 7.989 0 10.1399-1.226 3.2263-4.139 6.7599-7.051 10.1398-1.993 2.3045-3.986 4.3018-5.519 6.6063-1.84 2.7654.92 6.4526 0 9.6789s-3.679 6.6063-5.672 9.3717c-1.686 2.1509-4.139 3.38-5.672 5.5308-1.993 2.9191-3.066 5.6845-4.292 8.9108-1.073 2.6118-1.686 5.5308-2.146 8.2963-.307 2.3045.766 4.7626-.307 6.7599-.766 1.5363-2.452 1.2293-3.525 2.4583-1.533 1.69-2.3 3.994-3.066 6.145-.92 2.612-.92 4.148-2.3 6.453-1.533 2.612-4.445 5.223-5.825 7.989-1.533 3.072-1.686 6.606-2.299 9.832-.767 3.227-1.38 6.146-1.993 9.218-.766 3.841-1.686 7.836-1.533 11.83 0 1.229 1.226 1.997 1.84 3.073.459.922 1.532 1.844 1.226 2.765-.46 1.383-2.913 1.383-3.066 2.766-.153 1.382.153 2.765 1.226 3.687.92.922 2.76.461 3.373 1.536.766 1.076.613 2.766 0 3.995-.46 1.075-2.146.768-2.3 1.843-1.532 4.763-.459 7.989-1.226 12.445zm267.651 43.939c-.613-1.844.92-2.151 1.84-3.226 1.38-1.383 2.759-2.766 3.372-5.531.154-1.076 1.227-2.766 1.533-4.456.307-2.458-.153-5.07-.919-6.606-.92-2.151-2.3-3.226-1.84-5.223.153-1.23 3.066-1.383 5.365-2.459 1.227-.461 2.146-1.536 2.606-2.458.46-1.229-1.226-1.075-1.992-2.612-.92-1.69-1.074-4.301-1.687-5.53-1.226-2.305-3.372-5.224-3.525-7.836-.154-6.76 1.686-13.673 1.992-20.126.154-5.531 1.533-6.76 1.073-12.444-.153-2.766-1.686-4.763-3.219-7.682-1.226-2.304-2.912-4.763-3.525-6.913-1.074-3.995 0-8.604-.614-12.752-.153-.768-2.146-1.844-2.146-2.612-.46-5.531.154-11.369-.306-16.746-.154-1.075-1.073-1.229-1.073-2.304-.307-3.0731 0-6.1458 0-8.7576 0-2.3045-.307-4.4554-.307-7.0672 0-1.0754-.92-1.69-.92-2.7654-.153-5.9917 0-12.7516 0-18.7434-.153-6.4526-.46-12.2907 0-18.7433.154-1.0755 2.3-1.0755 2.3-2.1509-.154-4.9163-.614-6.9135-.46-11.8298 0-.6146 1.226-1.8436 1.226-2.4582.307-4.1481.92-8.2962-.153-11.6762-.767-2.6118-2.606-3.3799-4.906-4.9163-1.992-1.3827-4.138-3.84082-5.825-5.0699-2.299-1.68997-3.832-3.07268-5.518-5.53082C426.432.153634 428.118 0 430.111 0c2.452 0 5.212.153634 7.511.460902.767.153635 2.3 1.536338 3.066 1.843608 1.839.76817 3.066-.15363 4.905.30727 1.38.4609 7.358 3.53359 8.891 4.45539 2.146 1.22907 2.913 3.07273 5.212 4.14813.46.1536 7.358 2.1509 8.278 2.4581 1.84.4609 3.066-.9218 4.906-.4609 2.146.6146 6.131 1.69 8.584 2.4582 1.38.4609 2.299 1.9972 3.679 2.3045 6.898 1.3827 5.672-.9218 11.19 4.609 1.687 1.69 4.293 2.9191 5.519 4.9163 1.686 2.7654 1.84 6.1454 2.913 9.0644.766 2.3045 2.759 4.3018 3.219 6.7599 1.226 6.6063 0 13.5198.766 20.2797.307 1.9973 2.3 4.1482 2.606 6.299.767 7.8354.92 15.6707 0 23.5061-.306 2.6117-2.606 3.6872-2.912 6.299-.614 4.4554.613 8.9104.306 13.3664-.153 2.151-1.379 4.301-2.452 6.145-.767 1.383-2.606 1.844-3.22 3.226-1.533 3.841-1.226 8.911-1.839 13.059-.153 7.836 0 13.827.306 21.663.307 5.531.767 10.447.154 15.824-.307 1.844-1.84 2.919-2.146 4.763-.767 5.223-.154 10.6-.614 15.824-.153.922-1.379 1.997-1.532 2.765-.307 4.763-.614 11.83-2.76 17.207-1.379 3.534-4.752 7.068-7.971 9.219-3.066 1.997-6.438 2.458-9.964 3.379-2.299.615-4.752.308-6.898 1.383-1.227.615-.46.615-1.533 1.537-.613.46-1.84.46-2.453 0-.92-.769-.613-1.076-1.686-1.537-1.533-.768-3.526-.614-5.212 0-1.073.461-.767 1.383-1.993 1.537-2.453.46-5.365 1.075-7.971 1.075-2.146-.615-3.373.154-3.833-1.229zm22.993-176.372c3.373-.1537 4.139-.3073 7.205 1.229 3.219 1.69 3.832 2.7654 5.825 5.8381 1.073.9218 1.993 1.9973 3.066 2.9191 4.139 3.9945 5.978 9.5253 7.665 14.7489.306 5.6844 1.533 15.517-1.38 20.7406-1.38 2.6113-1.993 4.6093-2.146 6.7603-.613 6.145-2.453 5.069-4.139 9.679-.46 1.229-.307 2.765-.46 5.838-.153 10.6-.306 21.201-.46 31.802-.153 6.76-1.379 9.986-4.139 16.285-1.533 2.919-2.452 4.916-2.452 8.296 0 3.995-.767 5.838-2.453 9.526-.92 2.151-1.993 4.455-2.913 6.606-1.226 2.612-2.146 3.534-2.912 3.226-.767-.307-1.227-1.997-1.227-4.609 0-12.905.154-25.81.154-38.716.153-13.673.306-27.5.46-41.174-.154-2.919 0-3.533-1.993-5.838-.153-4.455-1.073-6.4523-2.453-10.754-1.839-3.38-1.533-5.8381-1.686-9.5253-.153-9.5253-.153-19.0507-.307-28.576 0-5.9917 1.227-3.9945 6.745-4.3017zM243.552 216.777c-1.073-5.223-.306-9.371 0-13.212.153-.922 1.993 0 2.453-.922.766-1.229 1.38-2.765.92-4.148-.307-.768-.767.307-1.227-.461-.613-.922-.46-2.612.307-3.534 1.073-1.382 3.066-.921 3.832-2.458.92-2.151-.766-4.762 0-6.913.154-.768 1.993.768 2.146 0 .767-3.38-.153-6.914.307-10.447.153-.922.92-1.383 1.073-2.151.46-3.688.613-7.682 0-11.369-.46-2.305-2.299-3.995-2.606-6.299-1.226-8.45-1.533-17.668-.46-26.118.767-6.606 5.059-16.746 7.511-22.892 1.533-3.84 2.3-2.611 3.68-6.6058.459-1.229.766-2.6117.306-3.8408-.46-1.5364-2.299-2.6118-1.993-4.1481.307-1.8436 2.606-1.8436 3.219-3.6873.92-2.4581-.919-5.3772 0-7.8353 1.074-2.919 4.446-4.609 5.366-7.5281.766-2.7654 0-7.3744.766-10.1398 1.533-5.6845 3.526-9.2181 6.132-14.4416 1.533-3.0727 4.445-5.6845 5.672-8.7572 1.226-3.0727 1.073-7.2208 1.686-9.8326-1.993-2.4581-6.438.9218-9.504-.1536-1.533-.6145-1.533-3.0727-2.913-3.5336-3.219-.1536-6.285-.3072-8.431 1.3827-3.066 2.3045-3.066 4.9163-4.292 8.6035-1.84 5.3772-.46 11.5226-2.606 16.7462-.92 1.9972-4.446 2.6117-6.132 4.1481-.92.7682-1.379 1.5363-2.453 1.5363-1.226 0-2.146-.4609-2.452-1.5363-.613-2.3045.153-4.7627 0-7.2208-.154-1.8436-1.073-3.8409-.613-5.6845.306-.9218 2.452-.6145 2.452-1.5363.92-10.7544-.306-21.6624-.153-31.95593 0-3.68722 1.073-3.07268 4.599-3.07268h22.381c12.11 0 24.22-.4609 36.33-.15363 1.84.15363 4.139.76817 4.292 2.61178.307 3.68726-2.146 7.22076-3.832 10.44716-.92 1.6899-2.912 2.7654-3.526 4.609-1.073 3.0727.154 6.7599-1.073 9.8326-.766 1.8436-4.445 2.1508-5.058 4.1481-1.073 2.6118.766 5.8381-.307 8.4499-.46 1.3827-3.372.6145-3.832 1.8436-1.533 4.4554-.614 9.5253-1.84 14.1343-.613 2.6118-2.606 4.3018-2.912 6.9135-.92 7.0672.613 14.288 0 21.5088-.154 1.5364-1.687 2.6118-2.147 4.1481-1.073 3.5336-1.686 7.2213-2.912 10.7543-.46 1.536-2.453 2.305-2.759 3.841-.614 2.305.919 4.763 0 6.914-1.073 2.611-5.059 3.84-5.672 6.606-1.686 7.989.92 16.439-.307 24.581-.613 3.687-3.679 6.453-4.445 10.14-.92 4.609.613 10.14-.614 14.749-1.073 4.455-4.292 8.296-5.978 12.598-.307 4.148-5.365 7.989-2.606 11.215 3.219.461 8.738 1.076 12.57-.614 1.686-.768-.306-4.456 1.226-5.685 4.753-3.533 10.118-4.916 15.33-7.528 3.066-1.536 6.745-2.919 9.504-5.07 1.38-1.075 1.533-3.533 3.066-4.148.92-.307 1.226 1.997 2.146 2.151 3.526.615 6.592-.922 9.964 0 1.38.307 1.38 2.151 1.686 3.534.307 1.229.92 2.611.154 3.687-.46.614-1.84 0-2.147.614-.613 1.383-.306 3.227 0 4.763.307 1.229 1.38 1.997 1.533 3.226.614 6.453.767 12.906 0 19.205-.153 1.382-.919 2.765-2.299 2.919-9.044-.461-17.475.307-26.52.307-.92-.154-.46-1.69-1.226-2.151-2.3-1.075-6.592-1.075-9.044-.614-2.913.614-3.066 3.072-5.979 3.687-5.212 1.075-11.344 0-16.556.768-1.839.307-3.219 1.844-5.058 2.304-2.76.308-6.745 1.076-8.125-1.229zm-139.958 14.75c-3.9854 1.383-8.431 0-12.7232.153-1.2263 0-3.3724 1.076-4.5988.615-1.3796-.461-3.5257-3.073-2.606-4.148 3.2192-4.456 9.8108-4.916 12.7234-9.525 1.6862-2.766.1533-6.299.9198-9.526.3065-.922 1.8395-.922 2.4526-1.69.4602-.768.4602-1.843 0-2.458-1.2263-1.383-1.9928 1.536-2.4526-2.612-.4599-3.687-.4599-7.528-.1533-11.215.1533-2.304 1.9928-1.844 2.2994-3.073.6127-2.304-.6132-3.994 0-6.452.3065-1.076 2.1457-.768 2.7597-1.69.459-.922.613-2.305 0-3.073-1.227-1.69-4.2927-1.69-4.7526-3.841-.6131-3.841-.3065-7.989-.3065-11.83 0-3.994-.1533-8.142.1533-12.29 0-.769 1.8395-.769 1.9928-1.383.4598-1.383.1533-3.073 0-4.455-.1533-1.23.1533-3.688.1533-4.763-.1533-1.844-.9198-2.458 0-4.148.6127-1.076 2.6057-.461 2.7597-1.69.919-6.76-1.074-13.674-.307-20.434.153-1.075 1.993-.921 2.146-1.997.46-1.843.613-3.841-.153-5.531-.307-.768-2.146-.768-2.146-1.69-.767-9.8322.613-19.2039-.154-29.0365 0-.9218-2.299.3073-2.4523-3.6872 0-4.1481-.4599-8.1426-.3066-11.2153 0-2.3045 5.2119-2.4581 5.0589-4.7626-.154-3.6872.46-7.6817-.307-11.369-.306-1.229-1.839-.9218-2.299-2.1508-.46-1.0755 0-2.1509.46-3.0727.46-1.2291 1.992-2.1509 2.299-3.38.613-2.4581.613-5.0699 0-7.528-.153-.7682-1.533-1.5364-1.993-2.3046-.766-1.3827-.46-2.6117-1.379-3.6872-.614-.7681-2.6064-.3072-3.3728-1.0754-1.9929-1.8436-3.2192-3.6872-5.0587-5.3772-1.6863-1.5363-3.8324-2.6118-5.0587-4.9163-.7665-1.3827.1533-3.84085 1.3796-4.91629 1.0731-.76817 2.606-.61454 3.6791 0 .9197.4609.9197 2.45815 1.8395 2.61178 4.4455.61454 8.891-1.38271 13.183-.30727 1.84.46091 1.993 2.76542 3.833 3.68718 1.226.6146 3.372-.46086 4.445.1537 1.533 1.0754 2.913 3.3799 4.139 4.609 1.686 1.69 3.066 2.3045 3.832 4.7627 1.073 2.919.613 5.9917.613 9.0644 0 2.7654.46 5.3772.154 8.1426-.154.9218-1.84.4609-2.146 1.3827-.46 1.5363-.154 3.3799.613 4.7626.613 1.0755 2.146.461 2.606 1.69.92 2.6118 1.073 5.8381.306 8.4499-.306.9218-2.146.3073-2.299 1.3827-.766 12.9053-.92 26.1178.307 39.0231.153 2.1509 3.679 2.919 3.985 5.2235 1.227 12.2905.154 24.5815-.46 36.8725 0 1.69-.919 3.994-1.686 5.223-.766 1.383-.306 2.919-.306 4.456 0 1.997-.154 4.301.153 6.452.153 1.229 2.606 2.305 2.606 3.534-.307 3.38.306 4.916.46 8.296.153 1.536-2.76 2.612-3.679 3.841-.613.922-1.073 2.765-.46 3.841.46.922 1.379.461 1.686 1.536.46 1.537.46 2.766-.307 3.995-.459.921-2.299.768-2.452 1.69-.46 2.765 1.073 5.53.613 8.296-.153.768-1.993.614-1.993 1.383-.613 4.148.767 8.296 0 12.444-.306 1.536-2.606 2.304-2.759 3.841 0 .922 1.993.307 2.453 1.075.613 1.229-.92 3.687.306 4.148 4.446 1.229 9.811.922 14.256-.153 2.453-.615 3.526-4.148 6.132-4.456 3.066-.307 5.365 1.844 8.431 2.305 4.139.768 8.585.922 12.57-.154 2.3-.614 3.679-3.072 6.132-3.533 10.424-1.383 20.235-.615 30.812-.615 9.964 0 22.687-.614 30.199.307 4.292.154-.307 15.21 1.226 23.046.307 1.689 1.84 2.765 2.759 4.301 1.38 2.612 1.993 3.841-1.686 3.841-6.898 0-13.796.461-21.308.154-1.532 0-1.379-2.919-2.759-3.38-1.533-.615-3.219.768-4.752.307-2.299-.614-5.059-2.765-7.358-3.073-6.438-.768-12.877.769-19.162 0-1.379-.153-1.686-3.072-3.066-3.072-14.869-1.076-29.125.461-43.995-.308-3.219-.153-3.526-1.229-5.518-1.843-2.913-.768-7.972-1.229-10.731.153-5.212 1.537-5.212 5.992-10.424 7.836zM282.641 173.3c-3.066-.154-3.372-5.07-3.066-8.143.307-3.073 4.292-2.919 5.825-5.838 1.073-1.997-.46-5.531.613-7.528 1.38-2.151 4.906-1.998 6.132-4.148.767-1.229-.306-3.534-.306-4.917.153-3.38.766-5.838.613-9.218-.153-1.69-.767-4.916-.46-6.606.46-2.305 1.839-1.69 2.453-3.995.919-2.919-.614-6.145.306-8.91.307-1.076 3.219-.615 3.066-1.69-.307-1.383-2.759-.615-3.066-1.997-.766-4.302-.766-9.372.307-13.5203.766-2.6118 3.679-4.609 4.445-7.2208.767-2.7654-.919-5.8381 0-8.6035.613-1.8436 3.679-2.3045 4.139-4.1481 1.073-4.4554.154-9.8326 1.227-14.288.613-2.3045 1.839-4.9163 3.219-6.4527.919-.9218 1.686-1.5363 2.146-2.919.613-1.8436-.767-3.5336-.46-5.3772.307-1.69 1.533-2.7654 2.453-4.3018 1.073-1.9972 1.533-4.3017 2.452-6.299 1.533-2.919 3.526-5.2235 4.446-8.2962.766-2.3045-.92-5.9917.153-8.1426 1.38-3.0727 5.059-3.0727 6.592-6.1454 1.073-2.4581-.92-5.68444.306-8.29622.92-1.84361 2.76-2.61178 4.752-2.61178 1.533 0 3.22.9218 3.68 2.30451.919 2.76541.153 5.99169 1.226 8.60349 1.993 4.609 5.365 7.3745 7.205 11.9835.919 2.4581-.154 5.9917.46 8.4499.766 3.5336 1.379 6.9135 2.452 10.2935 1.38 4.1481 3.526 8.2962 4.599 12.598 1.073 3.8408 1.38 7.8353 2.146 11.8298.613 2.7654 1.686 5.3772 2.606 8.1426.46 1.2291 1.84.9218 2.146 1.9972.613 2.1509-1.226 4.4554-.613 6.4527.613 2.6118 3.373 5.0699 3.832 7.6817.767 4.1481 0 8.1427 0 12.2907.154 3.841.46 7.374 1.073 11.215.307 2.305 1.533 5.531 1.687 7.221.153 6.145.46 12.291.613 18.436.153 9.065.153 18.744-.307 27.654 0 1.076-1.226 1.537-1.686 2.612-1.38 3.687-2.606 5.838-3.526 9.679-.46 1.997-.46 4.302-1.379 6.145-.614 1.23-2.913 2.151-3.373 3.38-.92 2.766.153 5.531 0 8.911-.153 2.919-1.379 4.609-2.606 7.375-.766 1.843-2.146 4.762-2.759 6.76-.613 2.15.46 4.455-.153 6.452-.307 1.076-1.84 1.69-1.993 2.766-.613 2.765.46 5.838-.307 8.603-.46 1.536-.766 1.383-2.299 1.997-1.073.461-3.833 1.076-3.986-.153-.613-4.763.613-8.143 0-12.906-.92-5.53-3.219-8.91-4.599-14.441-.613-2.612.46-7.375-.766-9.833-2.299-4.455-9.504-6.145-9.198-11.061.307-4.763 3.066-7.836 5.979-11.677 1.993-2.611 3.219-6.913 4.445-9.986.92-2.151 1.38-4.763 1.533-7.067 0-3.226-.766-4.763-3.372-6.76-5.212-4.302-13.49-8.143-19.928-11.369-.92-.461-1.993 1.383-1.993 2.458 0 1.076 1.226 1.844 1.379 2.919.307 3.073-1.533 6.299-.153 9.065 1.38 2.919 6.898 3.841 6.132 6.913-.613 2.151-1.073 2.919-2.913 3.841-1.073.615-2.299.615-3.525.615-3.833.153-7.665-1.229-11.344-.461-3.986.922-7.512 2.765-11.191 4.609-2.299 1.536-4.752 3.073-7.511 3.073zm33.725-47.935c0-3.073-.153-5.992-.153-8.911 0-2.611 0-5.223.306-7.835.154-1.69 1.687-3.073 1.84-4.763.307-2.765-1.38-6.2986-.613-8.9104.306-1.0754 3.066 0 3.832-.9218.153-.3073.613-2.1509 1.38-3.5336.46-.9218 1.379-1.69 1.379-2.1509 0-.4609 0-4.1481.307-7.2208.153-1.8436.46-3.3799.766-3.3799.307 0 .614 1.5363 1.533 2.7654 1.073 1.3827 1.533 2.919 2.453 4.4554.613.9218 1.226 1.9972 2.146 2.3045 1.227.4609 2.606-.1536 3.833.3073.919.3072 1.073 1.6899 1.839 2.3045.613.3072 1.84-.3073 1.84.3072.613 3.0727 0 7.2208.613 10.4471.153.768 1.839.461 1.839 1.229.307 5.377.307 10.908.307 16.285 0 4.763-.153 9.679-.46 14.442 0 1.383-3.679 1.536-4.752.768-1.993-1.536-3.219-3.226-5.672-3.841-1.073-.307-1.073-1.997-1.993-2.304-2.299-.768-5.058-.922-7.358-.922-1.533 0-3.679.615-5.212.307-.306-.307 0-.922 0-1.229zm72.66-93.8697c0 3.0727.307 6.4527.307 9.8326 0 4.1481-.307 7.989-.307 12.2908 0 4.4553.307 9.5253.307 13.9807 0 3.5335-.613 10.4471-.307 13.5198.307 3.8408.613 4.4554 5.825 4.4554 2.606 0 5.979-2.6118 8.585-5.2236 1.686-1.8436 1.533-4.9163 2.146-6.299.92-1.9972 2.606-3.8409 3.066-6.1454.46-2.919-.613-5.3772 1.38-7.2208.766-.7681 1.532-9.218 1.532-11.0616 0-2.6118-2.759-6.6063-5.978-10.1399-2.146-2.4581-4.905-4.609-5.978-6.299-1.993-3.0727-3.526-4.3018-5.979-4.9163-4.752-1.0754-4.599-.6145-4.599 3.2263zM365.419 198.188c-.766 3.226 1.687 4.609 4.752 6.606 2.913 1.997 6.439 4.456 9.658 7.067 5.518 4.456 9.197 12.752 12.877 20.895 1.839-1.998.613-11.062 1.532-16.593.154-1.229 1.533-1.997 1.533-3.226.46-4.302.46-8.604 0-12.905-.153-1.537-1.686-2.766-2.146-4.302-.306-1.229-.306-2.458 0-3.687.307-1.537 1.533-2.766 1.533-4.302.46-4.456.613-8.911 0-13.366-.306-1.69-2.759-2.612-2.606-4.302.154-1.383 3.066-1.229 3.219-2.612.307-3.994-1.073-7.835-1.533-11.83-1.073-8.91-1.686-17.821-2.606-26.732-.306-3.226-1.532-6.453-1.073-9.679 1.687-4.302 3.22-8.757 4.752-12.291.767-1.075 1.84.922 2.606 1.998 2.606 3.379 6.132 7.528 6.745 11.676.92 5.07-1.839 9.679-1.226 14.749.153 1.536 2.453 1.229 3.066 2.611 2.606 6.76 4.599 13.827 5.825 20.895 1.38 8.142 1.84 16.438 2.146 24.581.153 3.534 0 7.221-1.073 10.754-1.533 4.917-4.445 8.758-5.978 13.52-1.533 4.917-2.146 6.453 3.219 6.453 2.146 0 4.445.154 6.132.922 4.292 2.151 6.131 7.067 10.117 9.679.92.614 1.993 1.382 3.219 1.997 5.825 3.226 6.438 1.075 7.665-3.995 1.533-6.76 1.993-12.751 3.066-19.357.46-3.38.46-6.76.613-10.14.153-4.763.613-9.679.306-14.442-.153-2.304-.153-4.763-1.533-6.453-1.073-1.229-4.445 0-4.752-1.536-.613-2.304 2.606-4.148 2.606-6.453-.919-6.299-1.686-11.829-1.839-17.975-.153-7.221-1.686-3.687-4.139-6.452-1.38-1.69-1.84-3.227-2.146-5.531-.613-6.607.306-13.827-.767-20.434-.46-2.919-1.839-5.838-3.679-7.989-.766-.768-1.993.461-2.452-.614-.767-1.536 1.686-2.765.766-4.302-2.146-3.5334-6.745-6.2988-10.271-8.6033-1.073-.7682-2.912.9218-3.679 0-.766-.9219-.919-3.5336 0-4.4554 6.132-.9218 9.351-3.8409 12.264-7.2208 4.139-4.7627 6.132-9.9863 8.124-15.8244.92-2.7654-.306-5.8381 0-8.7571.614-5.2236 3.373-10.1399 2.453-15.3634-1.38-7.6817-5.059-14.4416-9.351-20.8943-2.452-3.5335-6.132-6.7599-9.964-8.6035-3.219-1.53631-5.978-.3072-9.351-1.229-3.985-1.22912-7.205-3.37999-11.19-4.3018-3.219-.61453-6.439.61454-9.658 0-1.992-.4609-2.299-2.61178-4.292-2.91905-1.38-.15363-2.759 1.84361-4.139 1.84361-9.504.76817-17.475-1.07544-26.979.15364-1.38.15363-1.074 1.84361.153 2.61178 1.839 1.22907 4.445.61453 6.438 1.53634 3.526 1.53638 6.285 3.53358 8.891 6.45268 2.146 2.3045 3.066 4.9162 5.059 8.6035.766 1.5363 3.066-1.3827 4.752-1.5364 2.146-.3072 3.526-.3072 4.905 1.3827 1.227 1.5364-1.226 3.5336-2.759 4.7627-2.913 2.6118-4.752 3.9945-7.358 5.6845-1.686 1.229-4.752 2.3045-6.132 4.609-2.912 5.2235.46 11.0616 1.686 16.7461.46 2.1509.92 4.1481 1.38 6.299 1.533 6.7599 1.073 12.4444 1.993 19.3579.307 2.3045 1.839 4.1481 2.146 6.4526.307 2.6118-.153 4.609.153 7.2208.154 1.0755 1.073 2.3045 1.38 3.38 1.38 4.9166 2.453 11.0616 2.606 16.1316.613 16.592-.46 32.878.46 49.47 0 1.536 2.299 2.151 2.606 3.534.46 2.304-1.073 4.916-1.84 7.221-3.219 8.91-6.898 15.67-8.891 23.352z" clip-rule="evenodd"/></svg>